<?xml version="1.0" encoding="UTF-8" standalone="no"?>
<!-- Created with Inkscape (http://www.inkscape.org/) -->

<svg
   width="599"
   height="599"
   viewBox="0 0 158.48541 158.48542"
   version="1.1"
   id="svg1"
   xml:space="preserve"
   xmlns="http://www.w3.org/2000/svg"
   xmlns:svg="http://www.w3.org/2000/svg"><defs
     id="defs1" /><g
     id="layer1"><rect
       style="fill:#ffffff;fill-opacity:1;stroke-width:0.264583"
       id="rect9"
       width="158.48541"
       height="158.48541"
       x="0"
       y="0" /><circle
       style="fill:#002648;fill-opacity:1;stroke-width:0.271314"
       id="path3"
       cx="79.242706"
       cy="79.242706"
       r="79.242706" /><circle
       style="fill:#ffffff;fill-opacity:1;stroke-width:0.227614"
       id="path3-4"
       cx="79.242706"
       cy="79.242706"
       r="66.479393" /></g><g
     id="layer2"><path
       fill="#0077e1"
       d="m 46.700971,21.272497 c -3.280833,-1.799166 -7.249583,-1.719791 -10.4775,0.185209 -3.227917,1.905 -5.185833,5.37104 -5.185833,9.101665 v 97.366669 c 0,3.73062 1.984375,7.19667 5.185833,9.10167 3.201458,1.905 7.196667,1.98437 10.4775,0.1852 L 135.60097,88.52958 c 3.38667,-1.852084 5.50333,-5.423959 5.50333,-9.286875 0,-3.862917 -2.11666,-7.434792 -5.50333,-9.286875 z"
       id="path1"
       style="fill:#00498a;fill-opacity:1;stroke-width:0.264583" /></g><g
     id="layer3"><path
       fill="#0077e1"
       d="M 70.387178,48.880893 H 88.09824 c 0.69579,0 1.26508,0.569284 1.26508,1.265075 v 6.325379 H 69.122103 v -6.325379 c 0,-0.695791 0.569284,-1.265075 1.265075,-1.265075 z m -8.85553,1.265075 v 6.325379 H 48.880892 c -5.582147,0 -10.120606,4.538459 -10.120606,10.120606 V 81.772857 H 119.72513 V 66.591953 c 0,-5.582147 -4.53846,-10.120606 -10.1206,-10.120606 H 96.95377 v -6.325379 c 0,-4.886354 -3.96918,-8.855529 -8.85553,-8.855529 H 70.387178 c -4.886354,0 -8.85553,3.969175 -8.85553,8.855529 z M 119.72513,89.363317 H 89.36332 v 2.53015 c 0,2.79898 -2.26133,5.0603 -5.06031,5.0603 h -10.1206 c -2.798984,0 -5.060307,-2.26132 -5.060307,-5.0603 v -2.53015 H 38.760286 v 17.711063 c 0,5.58214 4.538459,10.1206 10.120606,10.1206 h 60.723638 c 5.58214,0 10.1206,-4.53846 10.1206,-10.1206 z"
       id="path1-8"
       style="stroke-width:0.158134" /></g></svg>
